# xmcd
#
# Track frame offsets:
#	150
#	11853
#	24617
#	39311
#	54772
#	69905
#	81708
#	96444
#	112314
#	125720
#	143190
#	155118
#	175647
#	188376
#
# Disc length: 2698 seconds
# Revision: 1
# Processed by: cddbd v1.5.2PL0 Copyright (c) Steve Scherf et al.
# Submitted via: dBpowerAMP V12.0
#
DISCID=c10a880e
DTITLE=Pete Goble - When I'm Knee Deep in Bluegrass
DYEAR=2005
DGENRE=Country
TTITLE0=It's Amazing What Sunshine Can Do
TTITLE1=Born to Be a Drifter
TTITLE2=Call of the Whippoorwill
TTITLE3=Highlander's Farewell
TTITLE4=It's Too Late Now
TTITLE5=Janie's Really Gone
TTITLE6=When I'm Knee Deep in Bluegrass
TTITLE7=Lesson in Love
TTITLE8=Lovin' Ain't Been Easy on My Mind
TTITLE9=Roses Remind Me of You
TTITLE10=Thank God for the Highways
TTITLE11=Too Close to the Flame
TTITLE12=What About Tomorrow
TTITLE13=The Whole World Must Be Knowin'
EXTD=
EXTT0=
EXTT1=
EXTT2=
EXTT3=
EXTT4=
EXTT5=
EXTT6=
EXTT7=
EXTT8=
EXTT9=
EXTT10=
EXTT11=
EXTT12=
EXTT13=
PLAYORDER=
